<svg width="409" height="489" viewBox="0 0 409 489" fill="none" xmlns="http://www.w3.org/2000/svg">
<path d="M102.202 316.212C114.811 328.421 128.608 338.092 145.249 343.169C150.393 344.739 153.973 342.854 155.428 337.575C159.687 322.118 159.581 306.505 157.179 290.738C155.953 282.693 154.744 274.764 152.009 267.005C148.152 256.062 140.833 249.239 130.028 245.587C116.89 241.146 103.543 236.626 93.9015 226.114C86.4651 218.006 78.5137 211.807 67.9405 207.846C54.0047 202.624 48.7257 189.835 45.6997 176.171C44.943 172.754 44.6534 169.305 44.5761 165.786C44.4901 161.865 46.3529 160.714 49.7839 161.168C51.4204 161.385 53.0749 161.728 54.6269 162.28C70.885 168.058 83.2017 177.797 87.6415 195.378C87.7228 195.7 87.9747 196.021 87.9448 196.323C86.388 212.068 99.0875 216.359 109.249 222.419C114.152 225.344 119.431 228.203 125.924 226.853C125.985 223.989 123.999 222.245 122.753 220.212C114.144 206.162 105.232 192.24 100.538 176.248C96.9364 163.979 95.3627 151.282 93.419 138.678C92.9242 135.47 94.6588 133.571 97.8372 133.232C100.771 132.918 102.772 133.53 103.381 137.219C106.498 156.097 112.357 173.998 123.412 189.871C131.339 201.252 141.355 210.877 150.181 221.503C153.471 225.464 156.497 229.645 159.626 233.739C160.716 235.165 161.39 236.992 163.85 237.694C167.293 232.468 168.837 226.47 170.708 220.493C173.518 211.512 169.723 205.399 163.244 200.074C153.832 192.338 148.37 182.344 146.163 170.461C146.133 170.298 146.047 170.144 146.026 169.981C145.309 164.543 144.929 158.228 149.889 155.443C154.001 153.135 158.664 157.301 162.078 160.147C171.73 168.196 174.91 179.619 177.134 191.382C177.381 192.685 177.414 194.029 177.671 195.33C177.789 195.931 178.206 196.473 178.764 197.603C183.098 189.37 186.197 181.245 187.951 172.641C188.641 169.259 189.712 166.001 189.758 162.4C189.839 156.139 187.298 151.503 182.635 147.754C180.431 145.982 178.086 144.385 175.874 142.623C165.71 134.525 161.921 123.716 163.509 111.171C164.673 101.974 167.406 102.199 173.299 105.346C186.449 112.367 190.787 124.761 194.097 137.837C194.826 140.715 195.822 143.451 196.503 146.447C198.677 145.675 198.938 143.762 199.24 142.362C201.613 131.366 204.479 120.434 204.628 109.079C204.734 100.996 202.187 93.4227 200.065 85.7666C199.271 82.9031 197.057 82.5541 194.633 82.3647C187.994 81.846 181.323 81.559 174.73 80.6912C162.71 79.109 156.024 70.6148 150.64 60.9212C145.735 52.0888 146.163 52.3871 155.938 49.4049C169.438 45.2866 190.521 52.3945 198.904 68.3219C200.92 72.1518 201.848 76.9388 207.283 78.3838C208.782 78.7824 209.607 81.8377 210.676 83.711C218.394 97.2303 219.517 111.811 218.634 127.05C217.837 140.802 213.459 153.68 210.473 167.029C228.548 163.734 265.032 115.793 274.777 90.7612C272.791 94.1558 270.803 97.5488 268.82 100.945C264.281 108.72 259.363 116.237 253.647 123.21C252.695 124.371 251.804 125.785 250.04 125.382C248.207 124.962 248.195 123.271 247.96 121.789C244.453 99.6937 249.532 79.8595 263.876 62.6186C271.603 53.332 281.672 47.2058 292.64 42.4324C296.381 40.8045 298.216 41.9219 299.644 45.8258C308.19 69.1839 305.168 91.0155 291.102 111.271C285.328 119.586 276.716 124.747 267.519 128.366C261.521 130.727 257.529 134.062 255.048 140.046C246.756 160.044 231.033 173.269 213.214 184.253C207.418 187.826 202.764 192.246 200.335 198.343C193.775 214.809 190.61 232.151 188.328 249.656C188.17 250.867 187.846 252.33 189.716 253.988C192.002 251.494 194.175 248.843 196.633 246.492C205.228 238.269 214.639 231.144 225.544 226.238C235.586 221.719 241.451 214.123 243.516 203.341C244.615 197.602 246.672 192.215 249.755 187.134C253.629 180.747 259.363 177.077 266.13 174.807C269.292 173.746 271.512 174.928 272.255 178.625C274.013 187.369 270.921 194.63 265.671 201.243C262.355 205.42 258.025 208.574 252.717 212.787C259.851 212.121 264.508 209.044 269.273 206.472C281.772 199.724 290.762 189.27 298.686 177.806C306.193 166.946 315.009 157.193 323.875 147.473C324.647 146.626 325.708 145.991 325.992 143.743C316.06 151.163 308.081 159.547 301.025 168.9C298.769 167.295 298.322 165.185 298.184 163.354C297.322 151.922 298.775 140.798 304.031 130.48C310.147 118.474 321.597 113.087 333.175 108.259C339.581 105.588 346.238 103.343 353.327 102.764C356.588 102.498 358.888 103.506 359.108 106.671C360.184 122.142 358.946 137.249 351.329 151.25C343.545 165.557 330.374 171.548 315.367 174.645C312.754 175.184 310.538 175.877 309.31 178.387C302.94 191.411 293.604 202.274 284.115 213.029C283.474 213.756 282.899 214.541 282.069 215.58C287.165 217.266 290.714 215.107 293.867 212.018C297.937 208.03 302.306 204.527 307.362 201.812C317.787 196.215 328.494 196.676 339.314 200.107C344.542 201.764 349.714 203.647 354.362 206.722C357.182 208.588 357.895 210.715 355.456 213.262C345.139 224.04 333.383 232.054 317.698 231.789C312.887 231.708 307.906 231.114 303.667 228.795C295.238 224.184 286.454 223.81 277.496 225.948C255.16 231.278 234.428 239.879 217.907 256.571C216.793 257.696 215.157 258.509 214.888 260.92C221.078 260.008 227.042 259.138 232.152 255.524C242.582 248.149 265.943 250.231 276.564 258.788C281.832 263.033 281.764 265.726 275.819 269.301C261.82 277.719 247.292 278.851 233.297 270.093C223.941 264.238 216.185 267.389 208.288 272.004C202.944 275.127 199.562 280.018 197.86 286.1C192.321 305.893 195.316 323.91 208.902 339.704C214.317 346 221.702 348.579 229.66 349.349C247.624 351.087 264.306 346.796 279.749 337.689C305.536 322.481 324.149 300.948 336.194 273.558C339.421 266.219 341.715 258.581 344.486 251.099C345.295 248.915 345.847 246.628 348.726 247.52C351.117 248.261 351.833 250.363 351.246 252.787C346.923 270.628 341.317 287.995 331.982 303.943C323.316 318.749 312.313 331.692 299.167 342.597C282.876 356.112 264.663 366.172 244.052 371.901C228.972 376.092 213.706 377.202 198.24 376.821C167.816 376.07 140.759 365.648 116.411 347.757C95.4951 332.389 79.1708 313.148 68.1757 289.567C61.6811 275.638 57.3508 261.041 55.7221 245.713C55.5302 243.907 55.7064 242.048 55.8483 240.224C55.9599 238.79 56.6909 237.668 58.2072 237.368C59.9635 237.02 60.6058 238.309 60.965 239.612C61.9346 243.131 62.6318 246.73 63.7 250.216C71.3259 275.105 82.8439 297.747 102.202 316.212Z" fill="#5F3E3E" fill-opacity="0.84"/>
<path d="M0.0589281 450.45C0.0577531 440.12 -0.0218219 430.29 0.0793901 420.461C0.145705 414.019 1.03717 413.233 7.26976 413.225C16.1002 413.214 24.9308 413.186 33.761 413.23C39.3965 413.258 44.6571 414.902 49.337 417.91C58.0868 423.532 59.7796 435.878 53.2253 444.744C52.4501 445.793 51.5754 446.768 50.539 448.03C56.0056 452.536 59.6347 457.645 59.4023 465.098C59.0503 476.394 51.303 484.779 39.8951 485.78C28.9306 486.742 17.955 486.631 6.97597 486.611C1.28252 486.6 0.0414107 485.335 0.0144487 479.441C-0.0289933 469.944 0.0373221 460.447 0.0589281 450.45ZM39.8867 459.067C33.6591 454.833 26.7172 457.376 20.0886 457.067C18.559 456.995 17.9773 458.559 18.0496 459.994C18.222 463.416 17.4673 466.909 18.6454 470.391C23.8468 471.323 28.976 471.149 34.0771 470.939C40.9464 470.656 43.4266 466.106 39.8867 459.067ZM39.4153 436.457C39.8988 431.85 37.0509 430.099 33.1883 429.783C29.3851 429.472 25.5372 429.721 21.709 429.7C19.6062 429.689 17.8457 430.395 18.1173 432.754C18.4724 435.84 16.2191 439.88 19.9948 441.82C24.9871 444.386 35.5819 441.468 39.4153 436.457Z" fill="url(#paint0_linear_20_50)"/>
<path d="M210.922 467.197C203.783 480.935 191.869 488.011 177.666 488.089C150.893 488.236 132.395 466.777 139.395 439.686C144.05 421.671 157.993 412.546 177.571 411.908C193.07 411.403 210.069 423.77 213.421 439.602C215.344 448.681 215.614 458.101 210.922 467.197ZM195.719 443.321C193.65 435.286 188.534 430.313 180.448 428.657C172.45 427.02 165.522 429.186 160.416 435.699C154.197 443.632 154.071 452.443 158.54 461.008C162.613 468.814 169.29 472.837 178.569 472.182C190.542 471.338 199.199 457.537 195.719 443.321Z" fill="url(#paint1_linear_20_50)"/>
<path d="M112.525 414.536C131.966 422.206 135.896 444.218 120.51 457.868C118.023 460.074 118.139 461.866 119.725 464.266C123.394 469.816 127.093 475.348 130.62 480.988C133.039 484.856 132.2 486.244 127.59 486.555C127.424 486.566 127.257 486.564 127.09 486.572C113.099 487.201 113.109 487.195 105.739 475.225C104.081 472.532 102.281 469.927 100.636 467.227C98.8785 464.345 96.325 463.404 93.0472 463.406C89.7766 463.408 88.0707 464.405 88.2221 468.008C88.4109 472.498 88.1264 477.007 88.2848 481.5C88.4142 485.17 86.7542 486.453 83.2334 486.63C71.4175 487.221 70.7378 486.679 70.7301 474.978C70.7179 456.651 70.7005 438.325 70.7328 419.999C70.7434 413.993 71.461 413.272 77.2772 413.24C86.1068 413.191 94.9372 413.262 103.767 413.192C106.64 413.169 109.392 413.681 112.525 414.536ZM88.2654 438.975C88.3559 449.001 87.031 448.024 97.34 448.068C99.4822 448.077 101.661 447.834 103.763 447.407C109.063 446.329 111.935 442.467 111.358 437.464C110.745 432.149 108.063 429.834 102.261 429.668C100.431 429.615 98.5973 429.653 96.7652 429.654C88.2681 429.66 88.2681 429.66 88.2654 438.975Z" fill="url(#paint2_linear_20_50)"/>
<path d="M325.926 486.602C314.27 486.596 303.106 486.486 291.945 486.636C287.984 486.689 286.152 485.509 286.26 481.217C286.726 462.739 286.872 444.256 285.992 425.781C285.952 424.95 285.972 424.115 285.984 423.283C286.116 413.477 286.376 413.219 296.033 413.218C307.862 413.217 319.691 413.189 331.52 413.218C337.824 413.234 338.189 413.652 338.235 420.139C338.243 421.305 338.191 422.473 338.24 423.637C338.415 427.798 336.566 429.752 332.282 429.684C324.62 429.563 316.943 429.926 309.295 429.585C303.634 429.332 304.374 432.863 304.239 436.42C304.1 440.094 304.569 442.473 309.252 442.22C315.731 441.869 322.248 442.291 328.738 442.08C332.765 441.949 334.764 443.317 334.294 447.521C334.221 448.179 334.287 448.853 334.288 449.519C334.295 456.83 334.294 456.825 327.162 456.822C320.998 456.819 314.832 456.914 308.67 456.798C305.458 456.738 304.181 458.041 304.271 461.254C304.588 472.511 302.477 470.913 314.04 470.982C320.364 471.02 326.694 470.564 333.015 470.673C338.177 470.761 339.064 472.587 339.152 479.819C339.207 484.302 337.823 486.885 332.916 486.614C330.757 486.495 328.585 486.598 325.926 486.602Z" fill="url(#paint3_linear_20_50)"/>
<path d="M372.789 428.787C366.323 428.838 360.326 428.813 354.334 428.971C351.2 429.054 349.863 427.78 349.63 424.622C348.841 413.904 349.387 413.219 360.032 413.21C372.69 413.199 385.347 413.194 398.005 413.206C406.187 413.213 409.758 419.308 405.215 426.403C400.918 433.113 395.823 439.313 391.041 445.71C385.858 452.643 380.614 459.53 375.442 466.472C374.672 467.505 374.153 468.725 373.131 470.547C380.936 471.426 388.183 470.951 395.41 470.908C395.908 470.905 396.404 470.809 396.902 470.771C406.615 470.014 410.056 474.579 406.883 483.902C406.139 486.089 404.48 486.521 402.577 486.525C386.423 486.557 370.268 486.565 354.113 486.546C351.121 486.542 349.657 485.149 349.581 481.938C349.441 476.045 349.81 470.796 354.079 465.746C362.658 455.596 370.393 444.732 378.461 434.151C379.448 432.856 380.85 431.774 380.874 429.645C378.523 428.155 375.809 429.033 372.789 428.787Z" fill="url(#paint4_linear_20_50)"/>
<path d="M238.435 431.183C233.692 428.499 228.815 429.961 224.088 429.712C218.169 429.399 216.723 427.796 216.756 420.563C216.785 414.423 217.927 413.226 224.019 413.216C239.669 413.19 255.32 413.184 270.97 413.211C276.617 413.221 277.977 414.861 278.008 421.41C278.037 427.718 276.428 429.596 270.884 429.656C267.721 429.689 264.545 429.839 261.396 429.627C257.402 429.357 256.182 431.179 256.21 434.949C256.324 449.932 256.253 464.917 256.247 479.901C256.244 485.602 255.333 486.518 249.584 486.628C238.865 486.833 238.906 486.833 238.869 476.019C238.818 461.206 238.697 446.394 238.435 431.183Z" fill="url(#paint5_linear_20_50)"/>
<path d="M205.702 59.4443C206.218 47.017 208.276 35.5408 216.13 25.915C221.341 19.5281 228.417 15.8541 235.803 12.697C239.092 11.2912 240.51 13.5631 241.225 16.0871C242.938 22.125 242.563 28.3235 241.436 34.3614C239.041 47.1986 231.394 56.5626 220.909 63.855C216.726 66.7641 212.509 69.6238 208.073 72.6664C205.712 68.468 205.632 64.2086 205.702 59.4443Z" fill="#5F3E3E" fill-opacity="0.84"/>
<path d="M200.69 54.5347C200.699 57.537 200.699 60.1411 200.699 62.5015C198.89 63.5095 198.014 62.5367 197.277 61.722C191.6 55.4466 185.635 49.3916 180.415 42.753C172.422 32.5893 174.827 21.2215 177.719 9.979C177.883 9.34187 178.224 8.75098 178.473 8.13502C182.533 -1.885 183.652 -2.20614 192.165 4.74885C196.804 8.5388 200.92 12.8024 204.294 17.8556C207.869 23.2099 207.979 28.7652 206.183 34.5141C204.156 41.0056 202.1 47.479 200.69 54.5347Z" fill="#5F3E3E" fill-opacity="0.84"/>
<path d="M103.794 109.241C101.697 113.748 99.7736 117.924 97.2624 123.377C94.8341 118.034 93.4723 113.522 90.9485 109.584C85.0613 100.4 82.4854 90.5286 85.7467 79.7388C87.6938 73.2966 90.6786 67.4243 95.859 62.8891C97.6226 61.3451 99.4654 60.3985 101.642 62.0385C109.725 68.1287 114.274 86.1572 110.086 95.8523C108.181 100.262 106.016 104.56 103.794 109.241Z" fill="#5F3E3E" fill-opacity="0.84"/>
<path d="M81.4441 102.998C88.411 111.305 90.7397 120.851 91.9286 131.48C73.7533 126.445 57.578 120.291 51.9628 100.445C50.3475 94.7364 51.8525 91.8329 57.1393 92.3617C66.1973 93.2676 74.7932 95.5371 81.4441 102.998Z" fill="#5F3E3E" fill-opacity="0.84"/>
<path d="M119.288 96.5834C123.338 94.4964 127.223 93.1105 131.389 92.5131C135.938 91.8608 138.134 93.8531 136.98 98.5509C134.277 109.557 129.42 119.231 118.488 124.405C113.296 126.863 108.018 129.141 102.673 131.548C100.303 120.909 108.67 103.526 119.288 96.5834Z" fill="#5F3E3E" fill-opacity="0.84"/>
<defs>
<linearGradient id="paint0_linear_20_50" x1="29.7064" y1="413.206" x2="29.7064" y2="486.625" gradientUnits="userSpaceOnUse">
<stop stop-color="#876B52"/>
<stop offset="1" stop-color="#666666"/>
</linearGradient>
<linearGradient id="paint1_linear_20_50" x1="176.315" y1="411.893" x2="176.315" y2="488.09" gradientUnits="userSpaceOnUse">
<stop stop-color="#876B52"/>
<stop offset="1" stop-color="#666666"/>
</linearGradient>
<linearGradient id="paint2_linear_20_50" x1="101.328" y1="413.191" x2="101.328" y2="486.786" gradientUnits="userSpaceOnUse">
<stop stop-color="#876B52"/>
<stop offset="1" stop-color="#666666"/>
</linearGradient>
<linearGradient id="paint3_linear_20_50" x1="312.561" y1="413.205" x2="312.561" y2="486.637" gradientUnits="userSpaceOnUse">
<stop stop-color="#876B52"/>
<stop offset="1" stop-color="#666666"/>
</linearGradient>
<linearGradient id="paint4_linear_20_50" x1="378.707" y1="413.199" x2="378.707" y2="486.556" gradientUnits="userSpaceOnUse">
<stop stop-color="#876B52"/>
<stop offset="1" stop-color="#666666"/>
</linearGradient>
<linearGradient id="paint5_linear_20_50" x1="247.382" y1="413.193" x2="247.382" y2="486.675" gradientUnits="userSpaceOnUse">
<stop stop-color="#876B52"/>
<stop offset="1" stop-color="#666666"/>
</linearGradient>
</defs>
</svg>
